<svg width="39" height="33" viewBox="0 0 39 33" fill="none" xmlns="http://www.w3.org/2000/svg">
<path d="M1.21894 13.4053H3.34255M3.34255 13.4053H35.6574M3.34255 13.4053C3.36515 13.3008 3.39188 13.1971 3.42274 13.0948C3.49639 12.8504 3.6004 12.6155 3.80955 12.1449L6.95036 5.07807C7.57133 3.68088 7.88234 2.98187 8.37313 2.46961C8.80695 2.01681 9.33905 1.67092 9.92902 1.45838C10.5965 1.21794 11.3616 1.21794 12.8906 1.21794H26.1087C27.6377 1.21794 28.4036 1.21794 29.071 1.45838C29.661 1.67092 30.1923 2.01681 30.6261 2.46961C31.1166 2.98152 31.427 3.67995 32.0471 5.07526L35.2006 12.1706C35.4022 12.6241 35.5048 12.8549 35.5771 13.0948C35.6079 13.1971 35.6348 13.3008 35.6574 13.4053M3.34255 13.4053C3.31723 13.5224 3.29708 13.6406 3.2821 13.7594C3.25017 14.0126 3.25017 14.27 3.25017 14.7849V25.5927M35.6574 13.4053H37.7811M35.6574 13.4053C35.6829 13.5224 35.7031 13.6406 35.7181 13.7594C35.7498 14.011 35.7498 14.2669 35.7498 14.7757V25.5929M35.7498 25.5929L27.6249 25.5929M35.7498 25.5929V27.6237C35.7498 29.8673 33.931 31.6864 31.6874 31.6864C29.4437 31.6864 27.6249 29.8676 27.6249 27.6239V25.5929M27.6249 25.5929L11.3751 25.5927M11.3751 25.5927H3.25017M11.3751 25.5927V27.6239C11.3751 29.8676 9.55626 31.6864 7.31262 31.6864C5.06899 31.6864 3.25017 29.8676 3.25017 27.6239V25.5927" stroke="#0C0C0C" stroke-width="1.2" stroke-linecap="round" stroke-linejoin="round"/>
</svg>
