<svg width="64" height="64" viewBox="0 0 64 64" fill="none" xmlns="http://www.w3.org/2000/svg">
<path d="M45.3333 45.3333C42.3878 45.3333 40 47.7211 40 50.6667C40 53.6122 42.3878 56 45.3333 56C48.2788 56 50.6667 53.6122 50.6667 50.6667C50.6667 47.7211 48.2788 45.3333 45.3333 45.3333ZM45.3333 45.3333H24.7839C23.5544 45.3333 22.9385 45.3333 22.4323 45.1146C21.9858 44.9216 21.5984 44.611 21.3161 44.2148C20.9997 43.7707 20.8725 43.1768 20.6206 42.0014L14.0573 11.3724C13.7996 10.1697 13.669 9.56901 13.349 9.11979C13.0667 8.7236 12.6794 8.41177 12.2328 8.2188C11.7265 8 11.1141 8 9.88409 8H8M16 16H50.3286C52.2533 16 53.2147 16 53.8607 16.401C54.4266 16.7522 54.8408 17.303 55.0215 17.944C55.2277 18.6758 54.9627 19.5999 54.4293 21.4492L50.737 34.2492C50.418 35.3549 50.2585 35.9068 49.9349 36.317C49.6493 36.6792 49.2726 36.9627 48.8454 37.1367C48.363 37.3333 47.7896 37.3333 46.6456 37.3333H20.6146M21.3333 56C18.3878 56 16 53.6122 16 50.6667C16 47.7211 18.3878 45.3333 21.3333 45.3333C24.2789 45.3333 26.6667 47.7211 26.6667 50.6667C26.6667 53.6122 24.2789 56 21.3333 56Z" stroke="#FBFBFB" stroke-width="2.4" stroke-linecap="round" stroke-linejoin="round"/>
</svg>
