<svg width="19" height="18" viewBox="0 0 19 18" fill="none" xmlns="http://www.w3.org/2000/svg">
<path id="cart" d="M6.92788 13.3839H15.606C15.9564 13.3839 16.277 13.0562 16.277 12.5868C16.277 12.1263 15.9564 11.7986 15.606 11.7986H7.09935C6.74149 11.7986 6.51783 11.5063 6.46564 11.0546L6.35381 10.1336H15.6656C16.8063 10.1336 17.4102 9.3099 17.5742 7.9637L18.1334 3.52656C18.1483 3.41143 18.1632 3.26086 18.1632 3.16344C18.1632 2.6409 17.8575 2.28664 17.3431 2.28664H5.39206L5.28023 1.33013C5.18331 0.559611 4.92237 0.169922 4.09482 0.169922H1.5376C1.16483 0.169922 0.836792 0.559611 0.836792 1.0113C0.836792 1.47184 1.16483 1.86153 1.5376 1.86153H3.87115L5.02674 11.2318C5.19076 12.5691 5.7872 13.3839 6.92788 13.3839ZM16.6125 3.87197L16.1428 7.80428C16.0831 8.25597 15.8819 8.53938 15.5165 8.53938L6.15997 8.54824L5.5859 3.87197H16.6125ZM7.53922 17.8299C8.2624 17.8299 8.84392 17.1391 8.84392 16.28C8.84392 15.4209 8.2624 14.7301 7.53922 14.7301C6.81605 14.7301 6.23452 15.4209 6.23452 16.28C6.23452 17.1391 6.81605 17.8299 7.53922 17.8299ZM14.428 17.8299C15.1512 17.8299 15.7253 17.1391 15.7253 16.28C15.7253 15.4209 15.1512 14.7301 14.428 14.7301C13.7049 14.7301 13.1159 15.4209 13.1159 16.28C13.1159 17.1391 13.7049 17.8299 14.428 17.8299Z" fill="#DCDCDC"/>
</svg>
