<svg width="52" height="46" viewBox="0 0 52 46" fill="none" xmlns="http://www.w3.org/2000/svg">
<path d="M36.3718 12.3038H47.0693C48.5464 12.3038 49.7437 13.5011 49.7437 14.9781V44.3964L40.83 36.9909C40.3498 36.592 39.7435 36.3732 39.1193 36.3732H17.6511C16.174 36.3732 14.9767 35.1759 14.9767 33.6989V25.6757M36.3718 12.3038V4.28059C36.3718 2.80356 35.1744 1.6062 33.6974 1.6062H4.27912C2.8021 1.6062 1.60473 2.80356 1.60473 4.28059V33.6996L10.5185 26.293C10.9987 25.8941 11.6049 25.6757 12.2292 25.6757H14.9767M36.3718 12.3038V23.0013C36.3718 24.4783 35.1744 25.6757 33.6974 25.6757H14.9767" stroke="#FBFBFB" stroke-width="1.6" stroke-linecap="round" stroke-linejoin="round"/>
</svg>
