<svg width="39" height="31" viewBox="0 0 39 31" fill="none" xmlns="http://www.w3.org/2000/svg">
<path d="M1.21894 13.4053V23.1556C1.21894 25.4308 1.21894 26.5678 1.66172 27.4368C2.0512 28.2012 2.67223 28.8233 3.43663 29.2128C4.30478 29.6552 5.44185 29.6552 7.71259 29.6552H31.2874C33.5581 29.6552 34.6936 29.6552 35.5617 29.2128C36.3261 28.8233 36.9492 28.2012 37.3387 27.4368C37.7811 26.5687 37.7811 25.4332 37.7811 23.1625V13.4053M1.21894 13.4053V9.34286M1.21894 13.4053H37.7811M1.21894 9.34286V7.71827C1.21894 5.44309 1.21894 4.30464 1.66172 3.43563C2.0512 2.67123 2.67223 2.05021 3.43663 1.66073C4.30563 1.21794 5.44408 1.21794 7.71927 1.21794H31.2815C33.5567 1.21794 34.6927 1.21794 35.5617 1.66073C36.3261 2.05021 36.9492 2.67123 37.3387 3.43563C37.7811 4.30379 37.7811 5.44086 37.7811 7.7116V9.34286M1.21894 9.34286H37.7811M9.34385 21.5302H17.4688M37.7811 13.4053V9.34286" stroke="#0C0C0C" stroke-width="1.2" stroke-linecap="round" stroke-linejoin="round"/>
</svg>
