<svg width="52" height="52" viewBox="0 0 52 52" fill="none" xmlns="http://www.w3.org/2000/svg">
<path d="M18.272 18.0757C18.7346 16.6503 19.5819 15.3818 20.7212 14.4082C21.8604 13.4346 23.2481 12.7948 24.7282 12.56C26.2082 12.3252 27.7235 12.504 29.1081 13.0772C30.4928 13.6504 31.6919 14.5958 32.5729 15.808C33.454 17.0203 33.9816 18.452 34.0994 19.946C34.2172 21.4399 33.9192 22.9377 33.239 24.273C32.5588 25.6083 31.5237 26.7286 30.246 27.5117C28.9683 28.2948 27.4989 28.7092 26.0004 28.7092V31.4175M26.1353 39.5433V39.8142L25.8655 39.8134V39.5433H26.1353ZM29.3753 2.8692L32.6821 5.68725C33.5152 6.39722 34.5496 6.82644 35.6407 6.91351L39.9715 7.25867C42.5178 7.46186 44.5402 9.48305 44.7434 12.0293L45.0878 16.3608C45.1748 17.4519 45.6056 18.4878 46.3156 19.321L49.1324 22.6269C50.7891 24.571 50.7894 27.4307 49.1326 29.3749L46.3158 32.6813C45.6059 33.5144 45.1757 34.5507 45.0886 35.6418L44.7421 39.9726C44.5389 42.5189 42.5196 44.5413 39.9734 44.7445L35.641 45.0902C34.5499 45.1773 33.5145 45.6054 32.6814 46.3153L29.3753 49.1335C27.4311 50.7903 24.5696 50.7906 22.6255 49.1338L19.3194 46.3156C18.4862 45.6056 17.4508 45.1768 16.3597 45.0897L12.0274 44.7445C9.48115 44.5413 7.46182 42.5194 7.25863 39.9731L6.91214 35.6421C6.82507 34.551 6.39488 33.5156 5.68491 32.6825L2.8681 29.375C1.21132 27.4309 1.21054 24.572 2.86732 22.6279L5.68667 19.3205C6.39664 18.4873 6.8227 17.4519 6.90977 16.3608L7.25624 12.0298C7.45943 9.48357 9.4846 7.46159 12.0308 7.2584L16.3584 6.91324C17.4495 6.82617 18.4854 6.3973 19.3185 5.68733L22.6258 2.8692C24.5699 1.21242 27.4311 1.21242 29.3753 2.8692Z" stroke="#FBFBFB" stroke-width="1.6" stroke-linecap="round" stroke-linejoin="round"/>
</svg>
