<svg width="77" height="64" viewBox="0 0 77 64" fill="none" xmlns="http://www.w3.org/2000/svg">
<path d="M1.60986 61.8968H8.98792M8.98792 61.8968H31.1221M8.98792 61.8968V30.3635C8.98792 28.3923 8.98792 27.4062 9.2276 26.489C9.44 25.6761 9.79136 24.9069 10.2632 24.2118C10.7957 23.4274 11.5357 22.7769 13.0192 21.4789L30.7324 5.97985C33.4825 3.5735 34.8577 2.37025 36.4063 1.91226C37.772 1.5084 39.2276 1.5084 40.5933 1.91226C42.1431 2.37059 43.5202 3.57498 46.2745 5.98496L63.9818 21.4789C65.4653 22.7769 66.2056 23.4274 66.7381 24.2118C67.21 24.9069 67.5586 25.6761 67.771 26.489C68.0107 27.4062 68.0124 28.3923 68.0124 30.3635V61.8968M31.1221 61.8968H45.8782M31.1221 61.8968V47.1407C31.1221 43.0659 34.4254 39.7626 38.5002 39.7626C42.575 39.7626 45.8782 43.0659 45.8782 47.1407V61.8968M45.8782 61.8968H68.0124M68.0124 61.8968H75.3905" stroke="#0C0C0C" stroke-width="1.6" stroke-linecap="round" stroke-linejoin="round"/>
</svg>
