<svg width="31" height="38" viewBox="0 0 31 38" fill="none" xmlns="http://www.w3.org/2000/svg">
<path d="M1.20366 15.0884C1.20366 24.82 9.71711 32.8677 13.4854 35.9531C14.0247 36.3947 14.2976 36.6181 14.6999 36.7314C15.0132 36.8196 15.4743 36.8196 15.7876 36.7314C16.1907 36.6179 16.4617 36.3967 17.003 35.9534C20.7713 32.868 29.2843 24.8209 29.2843 15.0892C29.2843 11.4064 27.8051 7.87398 25.1721 5.26983C22.539 2.66568 18.968 1.20268 15.2442 1.20268C11.5205 1.20268 7.94909 2.6659 5.316 5.27005C2.68291 7.8742 1.20366 11.4055 1.20366 15.0884Z" stroke="#0C0C0C" stroke-width="1.2" stroke-linecap="round" stroke-linejoin="round"/>
<path d="M11.2325 13.2373C11.2325 15.4528 13.0286 17.2489 15.2441 17.2489C17.4596 17.2489 19.2556 15.4528 19.2556 13.2373C19.2556 11.0218 17.4596 9.22577 15.2441 9.22577C13.0286 9.22577 11.2325 11.0218 11.2325 13.2373Z" stroke="#0C0C0C" stroke-width="1.2" stroke-linecap="round" stroke-linejoin="round"/>
</svg>
