<svg width="24" height="24" viewBox="0 0 24 24" fill="none" xmlns="http://www.w3.org/2000/svg">
<path d="M12.2858 6.19188L1.24234 17.2353V22.7571L6.76407 22.757L17.8075 11.7136M12.2858 6.19188L16.2457 2.2319L16.2481 2.22955C16.7932 1.68444 17.0663 1.41141 17.381 1.30914C17.6583 1.21906 17.9569 1.21906 18.2342 1.30914C18.5487 1.41134 18.8214 1.68406 19.3658 2.2284L21.7674 4.63007C22.3141 5.17674 22.5876 5.45021 22.69 5.7654C22.7801 6.04265 22.78 6.3413 22.69 6.61855C22.5876 6.93351 22.3146 7.20656 21.7687 7.75246L21.7675 7.75363L17.8075 11.7136M12.2858 6.19188L17.8075 11.7136" stroke="#FBFBFB" stroke-width="1.2" stroke-linecap="round" stroke-linejoin="round"/>
</svg>
