<svg width="35" height="39" viewBox="0 0 35 39" fill="none" xmlns="http://www.w3.org/2000/svg">
<path d="M21.5323 15.4373V29.6567M13.407 15.4373V29.6567M5.28166 7.312V31.2817C5.28166 33.557 5.28166 34.6939 5.72447 35.563C6.11397 36.3274 6.73503 36.9501 7.49947 37.3396C8.36767 37.782 9.50479 37.782 11.7757 37.782H23.1637C25.4345 37.782 26.57 37.782 27.4382 37.3396C28.2026 36.9501 28.8258 36.3274 29.2153 35.563C29.6577 34.6948 29.6577 33.5589 29.6577 31.288V7.312M5.28166 7.312H9.34433M5.28166 7.312H1.219M9.34433 7.312H25.595M9.34433 7.312C9.34433 5.41904 9.34433 4.47302 9.65358 3.72642C10.0659 2.73096 10.8563 1.93959 11.8518 1.52726C12.5984 1.21801 13.5454 1.21801 15.4383 1.21801H19.501C21.394 1.21801 22.3404 1.21801 23.087 1.52726C24.0825 1.93959 24.8732 2.73096 25.2855 3.72642C25.5948 4.47302 25.595 5.41904 25.595 7.312M25.595 7.312H29.6577M29.6577 7.312H33.7203" stroke="#0C0C0C" stroke-width="1.2" stroke-linecap="round" stroke-linejoin="round"/>
</svg>
