<svg width="19" height="18" viewBox="0 0 19 18" fill="none" xmlns="http://www.w3.org/2000/svg">
<path id="person.crop.circle.fill" d="M9.49583 18C14.2231 18 18.125 14.0962 18.125 9.375C18.125 4.65377 14.2148 0.75 9.48749 0.75C4.76855 0.75 0.875 4.65377 0.875 9.375C0.875 14.0962 4.77689 18 9.49583 18ZM9.48749 10.7346C7.85337 10.7263 6.58609 9.35832 6.58609 7.54824C6.56942 5.84659 7.86171 4.42855 9.48749 4.42855C11.1133 4.42855 12.3889 5.84659 12.3889 7.54824C12.3889 9.35832 11.1216 10.7513 9.48749 10.7346ZM9.48749 16.5736C7.61993 16.5736 5.63563 15.7979 4.37669 14.4466C5.33549 13.0118 7.23641 12.1777 9.48749 12.1777C11.7136 12.1777 13.6312 12.9952 14.5983 14.4466C13.3394 15.7979 11.3551 16.5736 9.48749 16.5736Z" fill="#0C0C0C"/>
</svg>
