<svg width="23" height="23" viewBox="0 0 23 23" fill="none" xmlns="http://www.w3.org/2000/svg">
<g id="User / User_Circle">
<path id="Vector" d="M16.4993 18.5268C15.271 17.1549 13.4863 16.2917 11.5 16.2917C9.5137 16.2917 7.72888 17.1549 6.50057 18.5268M11.5 20.125C6.73654 20.125 2.875 16.2635 2.875 11.5C2.875 6.73654 6.73654 2.875 11.5 2.875C16.2635 2.875 20.125 6.73654 20.125 11.5C20.125 16.2635 16.2635 20.125 11.5 20.125ZM11.5 13.4167C9.91218 13.4167 8.625 12.1295 8.625 10.5417C8.625 8.95385 9.91218 7.66667 11.5 7.66667C13.0878 7.66667 14.375 8.95385 14.375 10.5417C14.375 12.1295 13.0878 13.4167 11.5 13.4167Z" stroke="#DCDCDC" stroke-width="1.6" stroke-linecap="round" stroke-linejoin="round"/>
</g>
</svg>
